<svg width="24" height="18" viewBox="0 0 24 18" fill="none" xmlns="http://www.w3.org/2000/svg">
<path d="M23.2632 9.42128L15.8669 4.35785C15.5254 4.12385 15.1812 4 14.8952 4C14.3421 4 14 4.44386 14 5.18682V16.1304C14 16.8725 14.3417 17.3155 14.8934 17.3155C15.1799 17.3155 15.5186 17.1915 15.8609 16.9569L23.2606 11.8936C23.7365 11.5674 24 11.1285 24 10.6571C24.0001 10.1861 23.7396 9.74733 23.2632 9.42128Z" fill="white"/>
<path d="M1.49588 5.42128L8.89211 0.357847C9.23369 0.123845 9.57784 0 9.86391 0C10.417 0 10.7591 0.44386 10.7591 1.18682V12.1304C10.7591 12.8725 10.4174 13.3155 9.86563 13.3155C9.57914 13.3155 9.24048 13.1915 8.89815 12.9569L1.49847 7.89355C1.0226 7.56739 0.759064 7.12849 0.759064 6.65715C0.758956 6.18612 1.01947 5.74733 1.49588 5.42128Z" fill="white"/>
</svg>
